<?xml version="1.0" encoding="UTF-8"?>
<svg version="1.1" xmlns="http://www.w3.org/2000/svg" width="32" height="32">
<path d="M0 0 C2.65265362 1.38700843 3.50517912 3.29753126 4.79296875 5.9375 C4.79296875 6.5975 4.79296875 7.2575 4.79296875 7.9375 C7.76296875 7.2775 10.73296875 6.6175 13.79296875 5.9375 C15.72123184 19.87675124 15.72123184 19.87675124 11.79296875 25.9375 C9.43174638 28.4494387 6.89270718 30.38763079 3.79296875 31.9375 C1.41894374 32.00866382 -0.95703802 32.02159085 -3.33203125 32 C-4.61335937 31.99097656 -5.8946875 31.98195312 -7.21484375 31.97265625 C-8.69597656 31.95525391 -8.69597656 31.95525391 -10.20703125 31.9375 C-13.26983466 26.58115542 -15.10666295 22.16033471 -15.20703125 15.9375 C-13.30504098 11.28888562 -10.78497704 8.05773687 -7.26953125 4.5 C-6.41488281 3.61441406 -5.56023438 2.72882812 -4.6796875 1.81640625 C-2.20703125 -0.0625 -2.20703125 -0.0625 0 0 Z " fill="#9DE587" transform="translate(16.20703125,0.0625)"/>
<path d="M0 0 C2.63723295 1.15604732 3.09154449 2.33976417 4.24609375 4.9375 C4.58125 5.67097656 4.91640625 6.40445312 5.26171875 7.16015625 C5.5040625 7.72605469 5.74640625 8.29195312 5.99609375 8.875 C5.320625 9.17792969 4.64515625 9.48085937 3.94921875 9.79296875 C3.0571875 10.21191406 2.16515625 10.63085938 1.24609375 11.0625 C0.364375 11.46855469 -0.51734375 11.87460938 -1.42578125 12.29296875 C-4.4914765 14.17419083 -6.09562558 15.82175092 -8.00390625 18.875 C-8.69493107 22.21402191 -8.69493107 22.21402191 -8.75390625 25.6875 C-8.810625 26.84894531 -8.86734375 28.01039062 -8.92578125 29.20703125 C-8.9515625 30.08746094 -8.97734375 30.96789062 -9.00390625 31.875 C-12.91839663 28.30137817 -14.66516814 24.11810378 -15.21484375 18.85546875 C-14.94241297 12.5771776 -11.26752974 9.12957121 -7.00390625 4.875 C-6.29427734 4.05902344 -6.29427734 4.05902344 -5.5703125 3.2265625 C-2.56718982 -0.1601366 -2.56718982 -0.1601366 0 0 Z " fill="#02AA94" transform="translate(16.00390625,0.125)"/>
<path d="M0 0 C0.33 0 0.66 0 1 0 C2.04291303 6.83547814 2.85097509 12.93471424 -1 19 C-4.09971669 22.30581487 -7.18674116 24.93721403 -11.8203125 25.09765625 C-12.91085938 25.08605469 -14.00140625 25.07445313 -15.125 25.0625 C-16.22070312 25.05347656 -17.31640625 25.04445313 -18.4453125 25.03515625 C-19.70988281 25.01775391 -19.70988281 25.01775391 -21 25 C-20.360625 24.360625 -19.72125 23.72125 -19.0625 23.0625 C-18.60746094 22.60230469 -18.15242188 22.14210938 -17.68359375 21.66796875 C-16.44581731 20.4416798 -15.18432553 19.23921204 -13.91015625 18.05078125 C-8.77497557 13.16138699 -4.9286901 8.19216455 -1.3125 2.08984375 C-0.6628125 1.05537109 -0.6628125 1.05537109 0 0 Z " fill="#04CC76" transform="translate(29,7)"/>
</svg>
